PathFileType	3	(X/Y/Z)	C:\Users\jcho911\Documents\Smart Splint MAP workflow\data\P09\mocap\P09EMGstatic01.trc
DataRate	CameraRate	NumFrames	NumMarkers	Units	OrigDataRate	OrigDataStartFrame	OrigNumFrames
200.0	200.0	8	37	mm	200.0	747	995	
Frame#	Time	LAS1			RAS1			LPS1			RPS1			RTH1			RTH2			RTH3			RLFC			RMFC			LTH1			LTH2			LTH3			LLFC			LMFC			LTB1			LTB2			LTB3			LLMAL			LMMAL			LToe			LMT1			LCAL			LMT5			RToe			RMT5			RMT1			RCAL			RTB1			RTB2			RTB3			RMMAL			RLMAL			T10			RACR1			CLAV			C7			LACR1			
		X1	Y1	Z1	X2	Y2	Z2	X3	Y3	Z3	X4	Y4	Z4	X5	Y5	Z5	X6	Y6	Z6	X7	Y7	Z7	X8	Y8	Z8	X9	Y9	Z9	X10	Y10	Z10	X11	Y11	Z11	X12	Y12	Z12	X13	Y13	Z13	X14	Y14	Z14	X15	Y15	Z15	X16	Y16	Z16	X17	Y17	Z17	X18	Y18	Z18	X19	Y19	Z19	X20	Y20	Z20	X21	Y21	Z21	X22	Y22	Z22	X23	Y23	Z23	X24	Y24	Z24	X25	Y25	Z25	X26	Y26	Z26	X27	Y27	Z27	X28	Y28	Z28	X29	Y29	Z29	X30	Y30	Z30	X31	Y31	Z31	X32	Y32	Z32	X33	Y33	Z33	X34	Y34	Z34	X35	Y35	Z35	X36	Y36	Z36	X37	Y37	Z37	
747	3.725	325.80515	1041.4355	-810.04681	592.07477	1032.3817	-812.52686	415.75916	1094.4009	-626.46332	511.26117	1093.3569	-624.76581	671.0025	781.80048	-720.86609	633.72913	681.31024	-793.92169	654.80859	611.27277	-687.90887	648.36761	525.25775	-694.77722	537.44318	511.15399	-721.06238	268.28448	685.83844	-735.44434	291.25748	760.87079	-816.23779	330.50854	626.46277	-789.89142	294.45538	527.09052	-714.57648	395.94171	517.81879	-743.63373	270.09799	317.94669	-683.828	270.67889	402.81918	-647.11133	294.80283	223.87151	-618.99646	286.62012	89.656631	-640.91815	372.19604	90.403976	-681.5932	258.45837	29.794693	-851.18347	322.8313	24.32156	-818.04889	337.26764	40.666878	-588.60388	218.71875	27.673246	-768.7724	667.13245	33.420834	-841.39453	715.97668	29.823095	-769.04425	606.82697	25.27738	-809.47211	623.38214	48.315575	-579.66541	679.97284	326.7822	-623.59778	639.76007	403.57468	-719.47711	673.63556	205.94279	-659.35254	575.44525	94.643936	-660.48328	671.11359	84.256584	-635.07269	459.08896	1335.199	-606.28711	684.99634	1524.4103	-710.12622	452.3363	1469.5607	-815.8811	469.80902	1588.9708	-652.96625	232.53178	1532.5115	-728.17657
748	3.73	325.80862	1041.452	-810.0387	592.11163	1032.4014	-812.58276	415.75705	1094.4028	-626.46112	511.293	1093.3507	-624.76935	671.02051	781.81262	-720.87341	633.74664	681.32056	-793.9364	654.81152	611.26581	-687.94788	648.38745	525.25964	-694.80829	537.41998	511.16519	-721.09741	268.28339	685.83813	-735.44409	291.26324	760.85345	-816.23926	330.55283	626.46246	-789.88379	294.45535	527.0907	-714.57599	395.93631	517.81927	-743.62573	270.10919	317.95636	-683.81226	270.68903	402.80054	-647.11487	294.81458	223.90311	-619.02002	286.62814	89.650574	-640.91296	372.1987	90.379021	-681.58594	258.43048	29.814947	-851.16254	322.79367	24.236208	-818.09772	337.28113	40.642235	-588.60583	218.73624	27.681053	-768.76971	667.15985	33.458412	-841.37756	715.97876	29.822275	-769.00867	606.86017	25.272276	-809.45355	623.38855	48.327366	-579.66321	679.97839	326.78394	-623.58386	639.81848	403.62341	-719.54578	673.63806	205.95941	-659.32849	575.4585	94.621964	-660.40283	671.11346	84.254944	-635.08466	459.08942	1335.1995	-606.28693	684.99353	1524.4468	-710.12683	452.34592	1469.5712	-815.90912	469.77148	1588.9839	-652.98724	232.53094	1532.5134	-728.17493
749	3.735	325.83835	1041.4592	-810.04266	592.12604	1032.4464	-812.513	415.79584	1094.3806	-626.45416	511.29156	1093.35	-624.7691	671.0199	781.81049	-720.87701	633.71075	681.34882	-793.8833	654.80219	611.27661	-687.93701	648.36066	525.25653	-694.77466	537.43909	511.16376	-721.05493	268.28259	685.83655	-735.48444	291.26721	760.84924	-816.28339	330.54242	626.47992	-789.867	294.48605	527.08508	-714.57526	395.95929	517.84247	-743.62372	270.17572	317.95459	-683.82788	270.73865	402.81128	-647.14484	294.81821	223.8857	-619.0177	286.59875	89.663696	-640.89215	372.23087	90.406891	-681.59198	258.46259	29.809698	-851.14117	322.84851	24.278364	-818.04907	337.27222	40.681503	-588.60657	218.75102	27.680979	-768.75519	667.14233	33.44125	-841.34735	716.00641	29.846476	-769.01343	606.8642	25.267088	-809.44775	623.38391	48.332439	-579.65857	680.00671	326.77972	-623.60693	639.80432	403.604	-719.50812	673.65173	205.98708	-659.2959	575.46027	94.632988	-660.47479	671.11218	84.262909	-635.06342	459.05704	1335.1923	-606.35699	684.93219	1524.3721	-710.20917	452.36481	1469.6023	-815.90045	469.80853	1588.9883	-653.0614	232.55167	1532.5265	-728.18182
750	3.74	325.83572	1041.4403	-810.04871	592.12689	1032.4105	-812.55609	415.75461	1094.3922	-626.50104	511.27225	1093.3403	-624.80817	671.00146	781.83765	-720.89142	633.75464	681.34454	-793.91034	654.8512	611.27747	-687.94446	648.36938	525.25696	-694.771	537.48993	511.10071	-721.11664	268.24744	685.81732	-735.51813	291.28912	760.8324	-816.29089	330.55634	626.46277	-789.87164	294.4826	527.12384	-714.5686	395.91547	517.8006	-743.56079	270.1236	317.9819	-683.77301	270.74429	402.80505	-647.13837	294.79553	223.88901	-618.99658	286.63657	89.668091	-640.88715	372.22348	90.404579	-681.55957	258.43909	29.799828	-851.12988	322.83746	24.266626	-818.05371	337.27304	40.661522	-588.6098	218.73689	27.673784	-768.7652	667.16559	33.465488	-841.36536	715.98877	29.850931	-769.03308	606.89441	25.297792	-809.47168	623.36652	48.324902	-579.66339	679.82629	326.79062	-623.53394	639.65918	403.49606	-719.30902	673.67102	205.97557	-659.33868	575.44849	94.614052	-660.48547	671.13507	84.27874	-635.07739	459.05362	1335.1633	-606.35394	684.96326	1524.4176	-710.18481	452.28592	1469.5741	-815.89124	469.71445	1588.986	-653.0495	232.48755	1532.5242	-728.17627
751	3.745	325.8681	1041.4187	-810.07654	592.11261	1032.4688	-812.60724	415.75015	1094.4347	-626.50385	511.25668	1093.34	-624.84052	671.05548	781.86304	-720.8927	633.74573	681.32147	-793.98206	654.82489	611.29169	-687.9295	648.36267	525.22101	-694.79382	537.46106	511.15042	-721.05853	268.24628	685.83423	-735.52448	291.25464	760.86072	-816.32184	330.5835	626.50372	-789.89819	294.51547	527.12225	-714.60632	395.96951	517.8302	-743.57983	270.18716	317.95648	-683.80243	270.72781	402.83813	-647.11554	294.79407	223.88872	-618.99713	286.62061	89.706329	-640.91113	372.24106	90.457199	-681.53571	258.4592	29.798332	-851.14008	322.88358	24.308582	-818.07312	337.28757	40.699898	-588.61389	218.73793	27.677496	-768.77924	667.15918	33.45525	-841.36615	715.98199	29.808397	-768.96692	606.90106	25.298178	-809.44763	623.34302	48.328396	-579.67792	679.92102	326.82227	-623.55023	639.64374	403.49384	-719.28406	673.61517	205.94897	-659.26184	575.44226	94.61689	-660.4776	671.12292	84.287773	-635.05005	459.05652	1335.1875	-606.35205	684.96832	1524.4364	-710.17627	452.35791	1469.6146	-815.90607	469.70633	1589.0082	-653.08044	232.52106	1532.5294	-728.19055
752	3.75	325.89395	1041.4141	-810.10541	592.10913	1032.4388	-812.64264	415.75345	1094.3876	-626.53223	511.2468	1093.3252	-624.85577	671.05438	781.85516	-720.90247	633.77521	681.35608	-793.98071	654.81128	611.31085	-687.94	648.40466	525.26392	-694.76978	537.49945	511.15399	-721.08588	268.24643	685.8172	-735.51825	291.25299	760.85736	-816.2796	330.59338	626.50952	-789.9176	294.46832	527.12744	-714.6203	395.98511	517.83313	-743.57928	270.17575	317.97491	-683.78772	270.76245	402.80505	-647.13647	294.80234	223.90523	-619.02417	286.61096	89.716705	-640.86505	372.2467	90.481476	-681.55359	258.45599	29.795639	-851.09454	322.84073	24.279961	-817.97522	337.28143	40.686504	-588.60187	218.74222	27.694988	-768.75861	667.15155	33.458733	-841.36713	716.03259	29.879665	-769.00281	606.92322	25.300322	-809.45172	623.35205	48.327976	-579.68115	679.84045	326.79184	-623.5354	639.8183	403.6185	-719.49432	673.67297	206.02397	-659.29077	575.44067	94.611855	-660.49121	671.15485	84.301018	-635.07031	459.02194	1335.2074	-606.4256	684.96234	1524.4349	-710.21948	452.35648	1469.5996	-815.90521	469.68097	1588.98	-653.11554	232.51558	1532.5129	-728.24414
753	3.755	325.86948	1041.4215	-810.09973	592.12897	1032.4453	-812.61609	415.71436	1094.4056	-626.56201	511.27606	1093.361	-624.90967	671.05518	781.87769	-720.875	633.80121	681.36597	-794.00647	654.83331	611.32983	-687.93207	648.46167	525.30566	-694.80591	537.49432	511.17511	-721.06335	268.27664	685.82684	-735.58289	291.3266	760.8446	-816.39142	330.61096	626.50531	-789.92828	294.47238	527.17377	-714.63214	395.96667	517.82263	-743.58386	270.16531	317.98215	-683.81165	270.75119	402.81473	-647.11896	294.8504	223.88011	-618.98608	286.64301	89.713188	-640.88898	372.2435	90.458008	-681.53711	258.44708	29.794609	-851.14288	322.90851	24.372709	-818.01239	337.31015	40.69062	-588.57416	218.74583	27.6961	-768.77618	667.11829	33.46822	-841.3681	716.01392	29.845865	-769.01331	606.88916	25.307266	-809.45203	623.34058	48.328415	-579.67279	679.83325	326.79956	-623.54926	639.78906	403.59879	-719.45355	673.67145	206.03535	-659.29333	575.4386	94.622337	-660.48584	671.13879	84.304108	-635.07904	459.01572	1335.1874	-606.41711	684.95593	1524.4586	-710.27759	452.31793	1469.5562	-815.97754	469.7056	1588.9951	-653.18695	232.49551	1532.5043	-728.24237
754	3.76	325.84375	1041.4043	-810.11749	592.13696	1032.4604	-812.67908	415.74023	1094.4042	-626.5907	511.26544	1093.3622	-624.93372	671.05853	781.89166	-720.8656	633.7572	681.35968	-793.98651	654.81744	611.31232	-687.99908	648.47766	525.32458	-694.90839	537.47491	511.16861	-721.14832	268.24432	685.82813	-735.60931	291.31287	760.88312	-816.33667	330.60175	626.50842	-789.94653	294.51273	527.11499	-714.68457	395.91064	517.87091	-743.62939	270.13733	317.98123	-683.83405	270.70358	402.81946	-647.14771	294.80093	223.88773	-619.01855	286.63315	89.697517	-640.8927	372.23856	90.457367	-681.53955	258.41449	29.785225	-851.14368	322.87405	24.355604	-818.04779	337.29465	40.706856	-588.57898	218.71121	27.693401	-768.75116	667.11841	33.449635	-841.36859	716.02039	29.878164	-769.00372	606.85742	25.285969	-809.46814	623.36395	48.327358	-579.68341	680.00366	326.79852	-623.5766	639.79742	403.61349	-719.47156	673.69287	206.00624	-659.34534	575.43549	94.626106	-660.46472	671.13025	84.310638	-635.08118	459.01636	1335.2095	-606.41687	684.8219	1524.333	-710.41187	452.31345	1469.5963	-815.95752	469.70392	1589.0071	-653.18591	232.46172	1532.5051	-728.27783
